# xmcd CD database file
#
# Track frame offsets:
#	150
#	24705
#	47299
#	67032
#	86415
#	108063
#	128991
#	148639
#	169220
#	192115
#	197580
#
# Disc length: 2989 seconds
#
# Revision: 0
# Processed by: cddbd v1.5.1PL0 Copyright (c) Steve Scherf et al.
# Submitted via: CDex 1.51
#
DISCID=900bab0b
DTITLE=Every Little Thing - ｅｔｅｒｎｉｔｙ
DYEAR=1900
DGENRE=J ポップ
TTITLE0=Ｐｒａｙ
TTITLE1=Ｒｅａｓｏｎ
TTITLE2=ｓｗｉｔｃｈ（Ａｌｂｕｍ　Ｍｉｘ）
TTITLE3=Ｊｕｓｔ　ｂｅ　ｙｏｕ
TTITLE4=Ｔｈｅ　Ｏｎｅ　Ｔｈｉｎｇ
TTITLE5=Ｇｅｔ　Ｉｎｔｏ　Ａ　Ｇｒｏｏｖｅ
TTITLE6=Ｒｅｓｃｕｅ　ｍｅ
TTITLE7=Ｓｍｉｌｅ　Ａｇａｉｎ
TTITLE8=ｓｕｒｅ（オーケストラ・ヴァージョン）
TTITLE9=Ｗｈｏ　ｃｒｉｅｓ　ｆｏｒ　ｍｅ？（Ｐｒａｙ　Ｒｅｐｒｉｓｅ）
TTITLE10=ｓｕｒｅ（Ａｒｅ　ｙｏｕ　ｓｕｒｅ？Ｍｉｘ）
EXTD=
EXTT0=
EXTT1=
EXTT2=
EXTT3=
EXTT4=
EXTT5=
EXTT6=
EXTT7=
EXTT8=
EXTT9=
EXTT10=
PLAYORDER=
